<svg xmlns="http://www.w3.org/2000/svg" viewBox="0 0 600 800"><defs><linearGradient id="sky" x2=".4" y2="1"><stop stop-color="#e5efe7"/><stop offset="1" stop-color="#8fa6a6"/></linearGradient><radialGradient id="glow"><stop stop-color="#fff" stop-opacity=".5"/><stop offset="1" stop-color="#fff" stop-opacity="0"/></radialGradient><filter id="noise"><feTurbulence type="fractalNoise" baseFrequency=".6" numOctaves="3" stitchTiles="stitch"/><feColorMatrix type="saturate" values="0"/><feComponentTransfer><feFuncA type="linear" slope=".15"/></feComponentTransfer><feBlend in="SourceGraphic" mode="soft-light"/></filter></defs><rect width="600" height="800" fill="url(#sky)"/><ellipse cx="400" cy="180" rx="300" ry="300" fill="url(#glow)"/><path d="M80 800Q-100 400 220 60Q540 100 570 800" fill="#c8d3cc"/><path d="M-50 410Q160 210 400 390Q210 550-50 410" fill="#f1f4ed"/><ellipse cx="208" cy="390" rx="82" ry="90" fill="#709595"/><ellipse cx="208" cy="390" rx="52" ry="67" fill="#3f6265"/><ellipse cx="208" cy="390" rx="27" ry="47" fill="#112b33"/><ellipse cx="232" cy="363" rx="14" ry="20" fill="#e1f2ed"/><path d="M-50 400Q180 220 405 392" fill="none" stroke="#5c726e" stroke-width="22"/><circle cx="213" cy="446" r="0.7" fill="#fff" opacity="0.31"/><circle cx="478" cy="596" r="1" fill="#fff" opacity="0.36"/><circle cx="0" cy="352" r="0.5" fill="#fff" opacity="0.20"/><circle cx="261" cy="107" r="1.5" fill="#fff" opacity="0.26"/><circle cx="441" cy="79" r="1" fill="#fff" opacity="0.16"/><circle cx="352" cy="144" r="0.5" fill="#fff" opacity="0.13"/><circle cx="274" cy="189" r="0.7" fill="#fff" opacity="0.47"/><circle cx="45" cy="350" r="1" fill="#fff" opacity="0.41"/><circle cx="407" cy="531" r="0.5" fill="#fff" opacity="0.39"/><circle cx="269" cy="742" r="1" fill="#fff" opacity="0.43"/><circle cx="407" cy="254" r="0.5" fill="#fff" opacity="0.46"/><circle cx="298" cy="232" r="1" fill="#fff" opacity="0.20"/><circle cx="210" cy="178" r="0.7" fill="#fff" opacity="0.10"/><circle cx="268" cy="271" r="1.5" fill="#fff" opacity="0.14"/><circle cx="359" cy="84" r="1.5" fill="#fff" opacity="0.37"/><circle cx="106" cy="406" r="1.5" fill="#fff" opacity="0.27"/><circle cx="431" cy="605" r="0.5" fill="#fff" opacity="0.39"/><circle cx="341" cy="2" r="0.5" fill="#fff" opacity="0.27"/><circle cx="588" cy="524" r="0.5" fill="#fff" opacity="0.34"/><circle cx="122" cy="511" r="0.7" fill="#fff" opacity="0.46"/><circle cx="78" cy="269" r="0.5" fill="#fff" opacity="0.16"/><circle cx="273" cy="359" r="1" fill="#fff" opacity="0.44"/><circle cx="544" cy="248" r="0.5" fill="#fff" opacity="0.27"/><circle cx="343" cy="772" r="0.7" fill="#fff" opacity="0.25"/><circle cx="68" cy="631" r="1.5" fill="#fff" opacity="0.15"/><circle cx="475" cy="499" r="1" fill="#fff" opacity="0.23"/><circle cx="146" cy="587" r="0.5" fill="#fff" opacity="0.11"/><circle cx="543" cy="707" r="1.5" fill="#fff" opacity="0.36"/><circle cx="446" cy="752" r="1" fill="#fff" opacity="0.16"/><circle cx="401" cy="304" r="0.5" fill="#fff" opacity="0.44"/><circle cx="375" cy="586" r="1.5" fill="#fff" opacity="0.32"/><circle cx="382" cy="486" r="0.5" fill="#fff" opacity="0.33"/><circle cx="156" cy="519" r="1" fill="#fff" opacity="0.17"/><circle cx="208" cy="518" r="0.7" fill="#fff" opacity="0.13"/><circle cx="94" cy="480" r="1" fill="#fff" opacity="0.23"/><circle cx="449" cy="351" r="0.5" fill="#fff" opacity="0.25"/><circle cx="164" cy="734" r="0.5" fill="#fff" opacity="0.37"/><circle cx="34" cy="535" r="1" fill="#fff" opacity="0.14"/><circle cx="313" cy="583" r="1" fill="#fff" opacity="0.15"/><circle cx="469" cy="86" r="1" fill="#fff" opacity="0.39"/><circle cx="471" cy="442" r="0.5" fill="#fff" opacity="0.49"/><circle cx="526" cy="367" r="1.5" fill="#fff" opacity="0.28"/><circle cx="415" cy="660" r="0.7" fill="#fff" opacity="0.25"/><circle cx="235" cy="715" r="0.5" fill="#fff" opacity="0.43"/><circle cx="223" cy="389" r="0.5" fill="#fff" opacity="0.33"/><circle cx="51" cy="726" r="0.7" fill="#fff" opacity="0.47"/><circle cx="346" cy="503" r="1.5" fill="#fff" opacity="0.44"/><circle cx="13" cy="471" r="1.5" fill="#fff" opacity="0.10"/><circle cx="287" cy="385" r="0.5" fill="#fff" opacity="0.39"/><circle cx="232" cy="713" r="1.5" fill="#fff" opacity="0.27"/><circle cx="534" cy="602" r="0.5" fill="#fff" opacity="0.38"/><circle cx="193" cy="350" r="1.5" fill="#fff" opacity="0.39"/><circle cx="555" cy="483" r="0.7" fill="#fff" opacity="0.31"/><circle cx="90" cy="108" r="0.5" fill="#fff" opacity="0.49"/><circle cx="592" cy="0" r="0.5" fill="#fff" opacity="0.40"/><circle cx="324" cy="584" r="1" fill="#fff" opacity="0.37"/><circle cx="469" cy="628" r="1" fill="#fff" opacity="0.33"/><circle cx="64" cy="772" r="0.7" fill="#fff" opacity="0.23"/><circle cx="461" cy="462" r="1.5" fill="#fff" opacity="0.25"/><circle cx="453" cy="240" r="1.5" fill="#fff" opacity="0.37"/><circle cx="567" cy="156" r="0.7" fill="#fff" opacity="0.15"/><circle cx="361" cy="249" r="0.5" fill="#fff" opacity="0.11"/><circle cx="155" cy="636" r="0.5" fill="#fff" opacity="0.48"/><circle cx="409" cy="110" r="1.5" fill="#fff" opacity="0.17"/><circle cx="41" cy="619" r="1.5" fill="#fff" opacity="0.43"/><circle cx="96" cy="59" r="0.7" fill="#fff" opacity="0.20"/><circle cx="393" cy="343" r="0.5" fill="#fff" opacity="0.39"/><circle cx="559" cy="430" r="0.5" fill="#fff" opacity="0.18"/><circle cx="488" cy="384" r="1" fill="#fff" opacity="0.50"/><circle cx="526" cy="443" r="1" fill="#fff" opacity="0.30"/><circle cx="340" cy="346" r="1" fill="#fff" opacity="0.47"/><circle cx="558" cy="647" r="0.5" fill="#fff" opacity="0.19"/><circle cx="303" cy="135" r="0.5" fill="#fff" opacity="0.22"/><circle cx="75" cy="447" r="0.7" fill="#fff" opacity="0.46"/><circle cx="464" cy="389" r="0.5" fill="#fff" opacity="0.27"/><circle cx="241" cy="771" r="0.7" fill="#fff" opacity="0.32"/><circle cx="162" cy="240" r="1.5" fill="#fff" opacity="0.37"/><circle cx="409" cy="756" r="1.5" fill="#fff" opacity="0.45"/><circle cx="258" cy="158" r="1.5" fill="#fff" opacity="0.22"/><circle cx="416" cy="786" r="0.5" fill="#fff" opacity="0.26"/><circle cx="46" cy="387" r="0.5" fill="#fff" opacity="0.42"/><circle cx="88" cy="25" r="1.5" fill="#fff" opacity="0.49"/><circle cx="560" cy="84" r="0.7" fill="#fff" opacity="0.26"/><circle cx="392" cy="526" r="0.7" fill="#fff" opacity="0.41"/><circle cx="451" cy="148" r="1" fill="#fff" opacity="0.28"/><circle cx="113" cy="494" r="0.5" fill="#fff" opacity="0.36"/><circle cx="408" cy="376" r="1.5" fill="#fff" opacity="0.31"/><circle cx="468" cy="466" r="0.5" fill="#fff" opacity="0.20"/><circle cx="93" cy="454" r="0.7" fill="#fff" opacity="0.34"/><circle cx="480" cy="456" r="0.7" fill="#fff" opacity="0.44"/><circle cx="315" cy="501" r="1" fill="#fff" opacity="0.35"/><circle cx="510" cy="316" r="0.7" fill="#fff" opacity="0.43"/><circle cx="56" cy="428" r="1" fill="#fff" opacity="0.13"/><circle cx="424" cy="113" r="1.5" fill="#fff" opacity="0.14"/><circle cx="246" cy="353" r="0.7" fill="#fff" opacity="0.32"/><circle cx="574" cy="562" r="1.5" fill="#fff" opacity="0.48"/><circle cx="326" cy="201" r="1" fill="#fff" opacity="0.15"/><circle cx="286" cy="774" r="0.5" fill="#fff" opacity="0.18"/><circle cx="364" cy="306" r="1.5" fill="#fff" opacity="0.18"/><circle cx="47" cy="434" r="0.7" fill="#fff" opacity="0.47"/><circle cx="18" cy="630" r="0.5" fill="#fff" opacity="0.17"/><circle cx="337" cy="275" r="0.5" fill="#fff" opacity="0.14"/><circle cx="4" cy="418" r="1.5" fill="#fff" opacity="0.42"/><circle cx="38" cy="62" r="0.5" fill="#fff" opacity="0.14"/><circle cx="554" cy="282" r="1.5" fill="#fff" opacity="0.31"/><circle cx="549" cy="69" r="1" fill="#fff" opacity="0.27"/><circle cx="126" cy="619" r="0.7" fill="#fff" opacity="0.15"/><circle cx="174" cy="649" r="0.7" fill="#fff" opacity="0.33"/><circle cx="134" cy="623" r="1.5" fill="#fff" opacity="0.39"/><circle cx="110" cy="504" r="1" fill="#fff" opacity="0.22"/><circle cx="590" cy="618" r="1.5" fill="#fff" opacity="0.35"/><circle cx="236" cy="374" r="1" fill="#fff" opacity="0.40"/><circle cx="583" cy="627" r="0.5" fill="#fff" opacity="0.20"/><circle cx="585" cy="614" r="1" fill="#fff" opacity="0.50"/><circle cx="516" cy="708" r="1.5" fill="#fff" opacity="0.10"/><circle cx="510" cy="717" r="0.7" fill="#fff" opacity="0.37"/><circle cx="247" cy="438" r="1" fill="#fff" opacity="0.19"/><circle cx="524" cy="198" r="1.5" fill="#fff" opacity="0.28"/><circle cx="60" cy="662" r="1.5" fill="#fff" opacity="0.33"/><circle cx="475" cy="597" r="1" fill="#fff" opacity="0.21"/><rect width="600" height="800" fill="transparent" filter="url(#noise)" opacity=".4"/></svg>